<?xml version="1.0" encoding="UTF-8" standalone="no"?>
<svg
   version="1.1"
   viewBox="11 52 529 456"
   width="529"
   height="456"
   id="svg15"
   sodipodi:docname="logo.svg"
   xml:space="preserve"
   inkscape:version="1.4.3 (0d15f75, 2025-12-25)"
   xmlns:inkscape="http://www.inkscape.org/namespaces/inkscape"
   xmlns:sodipodi="http://sodipodi.sourceforge.net/DTD/sodipodi-0.dtd"
   xmlns:xlink="http://www.w3.org/1999/xlink"
   xmlns="http://www.w3.org/2000/svg"
   xmlns:svg="http://www.w3.org/2000/svg"><defs
     id="defs15"><linearGradient
       id="linearGradient16"
       inkscape:collect="always"><stop
         style="stop-color:#9781ed;stop-opacity:1;"
         offset="0"
         id="stop16" /><stop
         style="stop-color:#402f7d;stop-opacity:1;"
         offset="1"
         id="stop17" /></linearGradient><linearGradient
       inkscape:collect="always"
       xlink:href="#linearGradient16"
       id="linearGradient17"
       x1="12.462306"
       y1="299.64307"
       x2="538.52771"
       y2="262.85699"
       gradientUnits="userSpaceOnUse" /></defs><sodipodi:namedview
     id="namedview15"
     pagecolor="#ffffff"
     bordercolor="#000000"
     borderopacity="0.25"
     inkscape:showpageshadow="2"
     inkscape:pageopacity="0.0"
     inkscape:pagecheckerboard="0"
     inkscape:deskcolor="#d1d1d1"
     inkscape:zoom="0.90481756"
     inkscape:cx="109.41432"
     inkscape:cy="209.43449"
     inkscape:window-width="2560"
     inkscape:window-height="1369"
     inkscape:window-x="-8"
     inkscape:window-y="397"
     inkscape:window-maximized="1"
     inkscape:current-layer="svg15" /><g
     stroke-width="2.00"
     fill="none"
     stroke-linecap="butt"
     id="g9"><path
       stroke="#8e6ff7"
       vector-effect="non-scaling-stroke"
       d="   M 471.66 232.55   L 470.98 232.88   C 470.68 233.03 470.32 233.04 470.01 232.91   C 468.59 232.32 466.54 231.55 464.84 230.44   C 460.66 227.69 455.93 225.16 450.65 222.85   C 436.60 216.68 422.37 212.68 407.96 210.85   C 403.61 210.30 398.80 210.02 393.53 210.03   C 385.60 210.05 380.78 210.10 379.07 210.18   C 375.38 210.36 369.47 211.10 361.35 212.40   C 356.69 213.15 352.18 214.22 347.81 215.63   C 341.70 217.60 337.31 219.10 334.64 220.13   C 319.01 226.22 304.74 234.88 291.81 246.11   C 291.54 246.35 291.50 246.75 291.72 247.02   C 304.17 262.63 313.74 279.98 320.41 299.07   C 321.10 301.05 321.53 302.96 321.69 304.80   C 321.74 305.40 322.44 305.71 322.92 305.34   C 324.16 304.39 326.07 302.61 328.65 300.02   C 330.22 298.44 332.11 296.76 334.32 294.99   C 337.51 292.44 339.51 290.88 340.32 290.32   C 353.69 281.08 367.92 276.00 383.02 275.08   C 398.95 274.11 413.67 277.06 427.16 283.95   C 439.87 290.44 450.12 299.07 457.91 309.86   C 462.55 316.28 466.61 324.15 470.08 333.46   C 470.57 334.75 471.39 338.25 472.56 343.95   C 473.30 347.55 473.13 351.02 473.61 354.33   C 473.94 356.57 474.00 359.18 473.79 362.17   C 473.22 370.40 472.58 375.90 471.89 378.65   C 466.02 402.00 453.50 419.79 434.33 432.00   C 426.69 436.87 418.56 440.38 409.95 442.51   C 400.87 444.76 392.06 445.54 383.52 444.83   C 368.76 443.61 355.16 438.93 342.73 430.79   C 338.70 428.16 334.19 424.51 329.22 419.86   C 327.19 417.96 325.87 416.56 325.24 415.65   C 322.17 411.23 318.94 407.92 316.15 403.07   C 310.33 392.91 306.54 382.07 304.79 370.55   C 304.46 368.42 304.03 361.87 303.50 350.91   C 303.01 340.94 302.01 332.30 300.49 324.99   C 295.34 300.16 284.45 278.31 267.82 259.42   C 256.69 246.77 243.71 236.43 228.88 228.41   C 213.74 220.22 197.44 214.65 179.99 211.71   C 176.99 211.20 174.91 211.27 172.54 210.77   C 170.78 210.40 168.91 210.19 166.94 210.15   C 156.01 209.90 148.54 210.04 144.51 210.55   C 135.86 211.65 129.24 212.77 124.65 213.91   C 110.03 217.54 95.76 223.59 81.85 232.07   C 80.84 232.69 79.89 233.05 79.02 233.14   C 77.79 233.27 76.72 232.31 76.72 231.07   C 76.75 163.76 76.78 126.48 76.79 119.25   C 76.80 114.50 76.51 109.42 75.91 104.01   C 74.77 93.74 70.85 84.27 64.16 75.59   C 59.33 69.32 53.15 64.33 45.64 60.60   C 40.19 57.90 35.39 56.22 31.24 55.57   C 29.53 55.30 26.39 54.90 21.82 54.35   C 19.26 54.04 16.47 54.15 14.51 54.19   C 13.81 54.20 13.24 54.78 13.24 55.48   L 13.00 473.22"
       id="path1" /><path
       stroke="#4c29c5"
       vector-effect="non-scaling-stroke"
       d="   M 13.00 473.22   C 13.07 471.52 11.90 471.16 11.90 469.70   C 11.89 445.58 11.88 422.19 11.86 399.54"
       id="path2" /><path
       stroke="#8e6ff7"
       vector-effect="non-scaling-stroke"
       d="   M 537.99 364.41   C 537.31 374.29 536.13 383.21 534.44 391.18   C 530.10 411.68 521.20 431.70 508.15 448.73   C 506.03 451.50 504.15 453.84 502.51 455.76   C 491.60 468.51 478.41 479.43 462.94 488.52   C 457.65 491.63 451.84 494.46 445.49 497.03   C 438.31 499.93 432.19 502.03 427.12 503.32   C 416.03 506.15 403.26 507.70 388.79 507.97   C 383.00 508.08 377.12 507.74 371.17 506.96   C 364.37 506.07 358.57 505.06 353.76 503.91   C 340.53 500.76 328.04 496.00 316.29 489.61   C 311.19 486.83 306.16 483.04 301.30 479.73   C 297.78 477.34 295.24 474.85 290.76 470.96   C 278.96 460.71 269.01 448.60 260.91 434.64   C 254.72 423.97 250.14 413.05 247.19 401.87   C 245.04 393.73 243.50 385.86 242.58 378.25   C 242.15 374.64 241.71 368.82 241.28 360.77   C 240.87 353.24 240.32 347.75 239.63 344.31   C 236.20 327.26 229.26 312.18 216.79 299.91   C 215.64 298.78 214.26 297.97 213.29 296.71   C 212.71 295.96 211.87 295.14 210.76 294.26   C 204.76 289.47 198.57 285.53 192.19 282.46   C 189.18 281.01 185.73 280.24 182.44 278.90   C 180.69 278.19 178.18 277.52 174.93 276.90   C 168.79 275.74 165.23 275.13 164.24 275.06   C 150.64 274.20 137.44 276.40 124.65 281.66   C 118.12 284.35 111.43 288.62 104.58 294.48   C 103.34 295.54 102.31 296.41 101.50 297.08   C 98.44 299.60 96.89 301.93 93.38 306.33   C 86.49 314.99 81.68 326.25 79.18 336.15   C 79.05 336.66 78.47 339.82 77.44 345.63   C 76.65 350.10 76.64 356.11 76.66 359.25   C 76.87 400.50 76.95 445.46 76.91 494.11   C 76.91 496.89 77.44 501.76 76.97 505.68"
       id="path3" /><path
       stroke="#6a4fd4"
       vector-effect="non-scaling-stroke"
       d="   M 76.97 505.68   L 76.59 505.91   C 76.39 506.03 76.15 506.10 75.91 506.10   L 13.52 506.10   C 13.16 506.10 12.86 505.80 12.86 505.44   L 13.00 473.22"
       id="path4" /><path
       stroke="#4c29c5"
       vector-effect="non-scaling-stroke"
       d="   M 78.17 497.46   L 77.36 505.07   C 77.35 505.23 77.28 505.38 77.16 505.49   L 76.97 505.68"
       id="path5" /><path
       stroke="#8e6ff7"
       vector-effect="non-scaling-stroke"
       d="   M 538.28 54.40   C 530.67 54.08 524.00 54.45 518.26 55.50   C 506.68 57.63 495.85 64.71 487.89 73.44   C 484.40 77.27 481.30 82.08 478.61 87.87   C 477.29 90.72 476.17 94.26 475.24 98.50   C 474.04 104.03 473.40 107.69 473.32 109.50   C 472.96 117.37 472.78 139.01 472.79 174.41   C 472.79 188.80 473.35 209.80 473.31 227.75   C 473.30 230.44 472.81 232.00 471.85 232.44"
       id="path6" /><path
       stroke="#4c29c5"
       vector-effect="non-scaling-stroke"
       d="   M 539.01 368.97   C 538.28 367.90 537.94 366.38 537.99 364.41"
       id="path7" /><path
       stroke="#6a4fd4"
       vector-effect="non-scaling-stroke"
       d="   M 537.99 364.41   L 538.28 54.40"
       id="path8" /><path
       stroke="#4c29c5"
       vector-effect="non-scaling-stroke"
       d="   M 538.28 54.40   C 538.46 54.25 538.09 53.87 537.18 53.26   C 536.95 53.10 536.68 53.02 536.40 53.01   L 531.69 52.90"
       id="path9" /></g><g
     id="g15"
     style="fill:url(#linearGradient17);fill-opacity:1"><path
       fill="#6a4fd4"
       d="   M 471.66 232.55   L 470.98 232.88   C 470.68 233.03 470.32 233.04 470.01 232.91   C 468.59 232.32 466.54 231.55 464.84 230.44   C 460.66 227.69 455.93 225.16 450.65 222.85   C 436.60 216.68 422.37 212.68 407.96 210.85   C 403.61 210.30 398.80 210.02 393.53 210.03   C 385.60 210.05 380.78 210.10 379.07 210.18   C 375.38 210.36 369.47 211.10 361.35 212.40   C 356.69 213.15 352.18 214.22 347.81 215.63   C 341.70 217.60 337.31 219.10 334.64 220.13   C 319.01 226.22 304.74 234.88 291.81 246.11   C 291.54 246.35 291.50 246.75 291.72 247.02   C 304.17 262.63 313.74 279.98 320.41 299.07   C 321.10 301.05 321.53 302.96 321.69 304.80   C 321.74 305.40 322.44 305.71 322.92 305.34   C 324.16 304.39 326.07 302.61 328.65 300.02   C 330.22 298.44 332.11 296.76 334.32 294.99   C 337.51 292.44 339.51 290.88 340.32 290.32   C 353.69 281.08 367.92 276.00 383.02 275.08   C 398.95 274.11 413.67 277.06 427.16 283.95   C 439.87 290.44 450.12 299.07 457.91 309.86   C 462.55 316.28 466.61 324.15 470.08 333.46   C 470.57 334.75 471.39 338.25 472.56 343.95   C 473.30 347.55 473.13 351.02 473.61 354.33   C 473.94 356.57 474.00 359.18 473.79 362.17   C 473.22 370.40 472.58 375.90 471.89 378.65   C 466.02 402.00 453.50 419.79 434.33 432.00   C 426.69 436.87 418.56 440.38 409.95 442.51   C 400.87 444.76 392.06 445.54 383.52 444.83   C 368.76 443.61 355.16 438.93 342.73 430.79   C 338.70 428.16 334.19 424.51 329.22 419.86   C 327.19 417.96 325.87 416.56 325.24 415.65   C 322.17 411.23 318.94 407.92 316.15 403.07   C 310.33 392.91 306.54 382.07 304.79 370.55   C 304.46 368.42 304.03 361.87 303.50 350.91   C 303.01 340.94 302.01 332.30 300.49 324.99   C 295.34 300.16 284.45 278.31 267.82 259.42   C 256.69 246.77 243.71 236.43 228.88 228.41   C 213.74 220.22 197.44 214.65 179.99 211.71   C 176.99 211.20 174.91 211.27 172.54 210.77   C 170.78 210.40 168.91 210.19 166.94 210.15   C 156.01 209.90 148.54 210.04 144.51 210.55   C 135.86 211.65 129.24 212.77 124.65 213.91   C 110.03 217.54 95.76 223.59 81.85 232.07   C 80.84 232.69 79.89 233.05 79.02 233.14   C 77.79 233.27 76.72 232.31 76.72 231.07   C 76.75 163.76 76.78 126.48 76.79 119.25   C 76.80 114.50 76.51 109.42 75.91 104.01   C 74.77 93.74 70.85 84.27 64.16 75.59   C 59.33 69.32 53.15 64.33 45.64 60.60   C 40.19 57.90 35.39 56.22 31.24 55.57   C 29.53 55.30 26.39 54.90 21.82 54.35   C 19.26 54.04 16.47 54.15 14.51 54.19   C 13.81 54.20 13.24 54.78 13.24 55.48   L 13.00 473.22   C 13.07 471.52 11.90 471.16 11.90 469.70   C 11.89 445.58 11.88 422.19 11.86 399.54   L 11.83 53.52   C 11.83 53.26 12.03 53.05 12.29 53.03   C 21.05 52.41 31.27 53.07 39.62 56.29   C 61.23 64.63 74.98 82.30 77.59 105.27   C 77.96 108.58 78.16 113.24 78.17 119.25   C 78.23 160.74 78.22 198.09 78.15 231.30   C 78.15 232.05 78.99 232.49 79.61 232.07   C 97.52 219.83 118.85 212.40 139.99 209.49   C 151.68 207.88 163.51 207.90 175.46 209.55   C 181.47 210.38 186.54 211.26 190.67 212.20   C 202.65 214.93 214.64 219.40 226.64 225.62   C 250.65 238.06 269.78 255.84 284.03 278.97   C 291.93 291.79 297.57 305.39 300.95 319.77   C 302.04 324.38 303.02 329.80 303.91 336.03   C 304.46 339.84 304.85 343.85 305.08 348.04   C 305.33 352.51 305.49 356.54 305.58 360.11   C 305.73 366.29 306.38 371.84 307.54 376.76   C 309.23 383.95 310.89 389.30 312.51 392.81   C 324.46 418.76 344.28 434.98 371.98 441.47   C 381.41 443.68 391.42 443.99 402.00 442.40   C 412.26 440.86 421.73 437.63 430.41 432.70   C 454.63 418.94 469.67 394.36 471.92 366.51   C 472.35 361.30 472.27 352.32 471.29 346.19   C 467.94 325.20 456.96 306.41 439.87 293.53   C 420.34 278.82 397.64 273.71 371.77 278.22   C 367.63 278.94 362.64 280.50 356.81 282.91   C 343.69 288.33 331.90 297.77 322.64 308.41   C 322.32 308.78 321.71 308.65 321.58 308.18   C 315.61 287.47 306.19 268.55 293.33 251.44   C 291.98 249.65 290.67 248.12 289.40 246.87   C 289.22 246.69 289.22 246.38 289.42 246.21   C 312.44 225.91 339.10 213.69 369.41 209.54   C 376.82 208.53 385.28 208.17 394.81 208.46   C 403.74 208.73 412.14 209.71 420.02 211.40   C 438.12 215.27 454.86 222.04 470.23 231.71   C 470.68 232.00 471.16 232.28 471.66 232.55   Z"
       id="path10"
       style="fill:url(#linearGradient17);fill-opacity:1" /><path
       fill="#4c29c5"
       d="   M 539.01 368.97   C 538.28 367.90 537.94 366.38 537.99 364.41   L 538.28 54.40   C 538.46 54.25 538.09 53.87 537.18 53.26   C 536.95 53.10 536.68 53.02 536.40 53.01   L 531.69 52.90   L 538.66 52.88   C 538.94 52.88 539.17 53.11 539.17 53.39   L 539.01 368.97   Z"
       id="path11"
       style="fill:url(#linearGradient17);fill-opacity:1" /><path
       fill="#6a4fd4"
       d="   M 531.69 52.90   L 536.40 53.01   C 536.68 53.02 536.95 53.10 537.18 53.26   C 538.09 53.87 538.46 54.25 538.28 54.40   C 530.67 54.08 524.00 54.45 518.26 55.50   C 506.68 57.63 495.85 64.71 487.89 73.44   C 484.40 77.27 481.30 82.08 478.61 87.87   C 477.29 90.72 476.17 94.26 475.24 98.50   C 474.04 104.03 473.40 107.69 473.32 109.50   C 472.96 117.37 472.78 139.01 472.79 174.41   C 472.79 188.80 473.35 209.80 473.31 227.75   C 473.30 230.44 472.81 232.00 471.85 232.44   C 471.82 192.75 471.75 153.19 471.65 113.75   C 471.61 99.87 475.69 87.41 483.89 76.38   C 490.47 67.53 498.66 61.07 508.47 56.99   C 515.72 53.97 523.46 52.61 531.69 52.90   Z"
       id="path12"
       style="fill:url(#linearGradient17);fill-opacity:1" /><path
       fill="#8e6ff7"
       d="   M 471.66 232.55   C 471.87 232.25 471.94 232.21 471.85 232.44   C 472.81 232.00 473.30 230.44 473.31 227.75   C 473.35 209.80 472.79 188.80 472.79 174.41   C 472.78 139.01 472.96 117.37 473.32 109.50   C 473.40 107.69 474.04 104.03 475.24 98.50   C 476.17 94.26 477.29 90.72 478.61 87.87   C 481.30 82.08 484.40 77.27 487.89 73.44   C 495.85 64.71 506.68 57.63 518.26 55.50   C 524.00 54.45 530.67 54.08 538.28 54.40   L 537.99 364.41   C 537.31 374.29 536.13 383.21 534.44 391.18   C 530.10 411.68 521.20 431.70 508.15 448.73   C 506.03 451.50 504.15 453.84 502.51 455.76   C 491.60 468.51 478.41 479.43 462.94 488.52   C 457.65 491.63 451.84 494.46 445.49 497.03   C 438.31 499.93 432.19 502.03 427.12 503.32   C 416.03 506.15 403.26 507.70 388.79 507.97   C 383.00 508.08 377.12 507.74 371.17 506.96   C 364.37 506.07 358.57 505.06 353.76 503.91   C 340.53 500.76 328.04 496.00 316.29 489.61   C 311.19 486.83 306.16 483.04 301.30 479.73   C 297.78 477.34 295.24 474.85 290.76 470.96   C 278.96 460.71 269.01 448.60 260.91 434.64   C 254.72 423.97 250.14 413.05 247.19 401.87   C 245.04 393.73 243.50 385.86 242.58 378.25   C 242.15 374.64 241.71 368.82 241.28 360.77   C 240.87 353.24 240.32 347.75 239.63 344.31   C 236.20 327.26 229.26 312.18 216.79 299.91   C 215.64 298.78 214.26 297.97 213.29 296.71   C 212.71 295.96 211.87 295.14 210.76 294.26   C 204.76 289.47 198.57 285.53 192.19 282.46   C 189.18 281.01 185.73 280.24 182.44 278.90   C 180.69 278.19 178.18 277.52 174.93 276.90   C 168.79 275.74 165.23 275.13 164.24 275.06   C 150.64 274.20 137.44 276.40 124.65 281.66   C 118.12 284.35 111.43 288.62 104.58 294.48   C 103.34 295.54 102.31 296.41 101.50 297.08   C 98.44 299.60 96.89 301.93 93.38 306.33   C 86.49 314.99 81.68 326.25 79.18 336.15   C 79.05 336.66 78.47 339.82 77.44 345.63   C 76.65 350.10 76.64 356.11 76.66 359.25   C 76.87 400.50 76.95 445.46 76.91 494.11   C 76.91 496.89 77.44 501.76 76.97 505.68   L 76.59 505.91   C 76.39 506.03 76.15 506.10 75.91 506.10   L 13.52 506.10   C 13.16 506.10 12.86 505.80 12.86 505.44   L 13.00 473.22   L 13.24 55.48   C 13.24 54.78 13.81 54.20 14.51 54.19   C 16.47 54.15 19.26 54.04 21.82 54.35   C 26.39 54.90 29.53 55.30 31.24 55.57   C 35.39 56.22 40.19 57.90 45.64 60.60   C 53.15 64.33 59.33 69.32 64.16 75.59   C 70.85 84.27 74.77 93.74 75.91 104.01   C 76.51 109.42 76.80 114.50 76.79 119.25   C 76.78 126.48 76.75 163.76 76.72 231.07   C 76.72 232.31 77.79 233.27 79.02 233.14   C 79.89 233.05 80.84 232.69 81.85 232.07   C 95.76 223.59 110.03 217.54 124.65 213.91   C 129.24 212.77 135.86 211.65 144.51 210.55   C 148.54 210.04 156.01 209.90 166.94 210.15   C 168.91 210.19 170.78 210.40 172.54 210.77   C 174.91 211.27 176.99 211.20 179.99 211.71   C 197.44 214.65 213.74 220.22 228.88 228.41   C 243.71 236.43 256.69 246.77 267.82 259.42   C 284.45 278.31 295.34 300.16 300.49 324.99   C 302.01 332.30 303.01 340.94 303.50 350.91   C 304.03 361.87 304.46 368.42 304.79 370.55   C 306.54 382.07 310.33 392.91 316.15 403.07   C 318.94 407.92 322.17 411.23 325.24 415.65   C 325.87 416.56 327.19 417.96 329.22 419.86   C 334.19 424.51 338.70 428.16 342.73 430.79   C 355.16 438.93 368.76 443.61 383.52 444.83   C 392.06 445.54 400.87 444.76 409.95 442.51   C 418.56 440.38 426.69 436.87 434.33 432.00   C 453.50 419.79 466.02 402.00 471.89 378.65   C 472.58 375.90 473.22 370.40 473.79 362.17   C 474.00 359.18 473.94 356.57 473.61 354.33   C 473.13 351.02 473.30 347.55 472.56 343.95   C 471.39 338.25 470.57 334.75 470.08 333.46   C 466.61 324.15 462.55 316.28 457.91 309.86   C 450.12 299.07 439.87 290.44 427.16 283.95   C 413.67 277.06 398.95 274.11 383.02 275.08   C 367.92 276.00 353.69 281.08 340.32 290.32   C 339.51 290.88 337.51 292.44 334.32 294.99   C 332.11 296.76 330.22 298.44 328.65 300.02   C 326.07 302.61 324.16 304.39 322.92 305.34   C 322.44 305.71 321.74 305.40 321.69 304.80   C 321.53 302.96 321.10 301.05 320.41 299.07   C 313.74 279.98 304.17 262.63 291.72 247.02   C 291.50 246.75 291.54 246.35 291.81 246.11   C 304.74 234.88 319.01 226.22 334.64 220.13   C 337.31 219.10 341.70 217.60 347.81 215.63   C 352.18 214.22 356.69 213.15 361.35 212.40   C 369.47 211.10 375.38 210.36 379.07 210.18   C 380.78 210.10 385.60 210.05 393.53 210.03   C 398.80 210.02 403.61 210.30 407.96 210.85   C 422.37 212.68 436.60 216.68 450.65 222.85   C 455.93 225.16 460.66 227.69 464.84 230.44   C 466.54 231.55 468.59 232.32 470.01 232.91   C 470.32 233.04 470.68 233.03 470.98 232.88   L 471.66 232.55   Z"
       id="path13"
       style="fill:url(#linearGradient17);fill-opacity:1" /><path
       fill="#6a4fd4"
       d="   M 537.99 364.41   C 537.94 366.38 538.28 367.90 539.01 368.97   C 537.58 392.97 531.05 414.95 519.40 434.90   C 510.05 450.91 497.33 465.27 481.23 477.98   C 467.85 488.55 453.17 496.52 437.18 501.90   C 421.25 507.27 404.75 509.86 387.68 509.67   C 361.03 509.38 333.76 502.30 310.95 488.05   C 288.80 474.22 269.30 453.98 257.11 430.82   C 250.30 417.88 245.43 403.86 242.49 388.75   C 242.00 386.23 241.38 382.12 240.63 376.43   C 240.22 373.27 239.96 369.14 239.86 364.04   C 239.71 355.99 238.95 348.76 237.59 342.36   C 234.39 327.27 227.68 313.47 217.00 302.20   C 205.17 289.72 190.76 281.70 173.76 278.14   C 168.87 277.11 163.26 276.63 156.94 276.70   C 150.73 276.76 145.17 277.31 140.28 278.36   C 122.52 282.15 107.87 291.11 96.32 305.23   C 86.11 317.72 80.48 332.71 78.70 348.59   C 78.34 351.82 78.16 356.77 78.17 363.44   C 78.21 408.11 78.21 452.79 78.17 497.46   L 77.36 505.07   C 77.35 505.23 77.28 505.38 77.16 505.49   L 76.97 505.68   C 77.44 501.76 76.91 496.89 76.91 494.11   C 76.95 445.46 76.87 400.50 76.66 359.25   C 76.64 356.11 76.65 350.10 77.44 345.63   C 78.47 339.82 79.05 336.66 79.18 336.15   C 81.68 326.25 86.49 314.99 93.38 306.33   C 96.89 301.93 98.44 299.60 101.50 297.08   C 102.31 296.41 103.34 295.54 104.58 294.48   C 111.43 288.62 118.12 284.35 124.65 281.66   C 137.44 276.40 150.64 274.20 164.24 275.06   C 165.23 275.13 168.79 275.74 174.93 276.90   C 178.18 277.52 180.69 278.19 182.44 278.90   C 185.73 280.24 189.18 281.01 192.19 282.46   C 198.57 285.53 204.76 289.47 210.76 294.26   C 211.87 295.14 212.71 295.96 213.29 296.71   C 214.26 297.97 215.64 298.78 216.79 299.91   C 229.26 312.18 236.20 327.26 239.63 344.31   C 240.32 347.75 240.87 353.24 241.28 360.77   C 241.71 368.82 242.15 374.64 242.58 378.25   C 243.50 385.86 245.04 393.73 247.19 401.87   C 250.14 413.05 254.72 423.97 260.91 434.64   C 269.01 448.60 278.96 460.71 290.76 470.96   C 295.24 474.85 297.78 477.34 301.30 479.73   C 306.16 483.04 311.19 486.83 316.29 489.61   C 328.04 496.00 340.53 500.76 353.76 503.91   C 358.57 505.06 364.37 506.07 371.17 506.96   C 377.12 507.74 383.00 508.08 388.79 507.97   C 403.26 507.70 416.03 506.15 427.12 503.32   C 432.19 502.03 438.31 499.93 445.49 497.03   C 451.84 494.46 457.65 491.63 462.94 488.52   C 478.41 479.43 491.60 468.51 502.51 455.76   C 504.15 453.84 506.03 451.50 508.15 448.73   C 521.20 431.70 530.10 411.68 534.44 391.18   C 536.13 383.21 537.31 374.29 537.99 364.41   Z"
       id="path14"
       style="fill:url(#linearGradient17);fill-opacity:1" /><path
       fill="#4c29c5"
       d="   M 13.00 473.22   L 12.86 505.44   C 12.86 505.80 13.16 506.10 13.52 506.10   L 75.91 506.10   C 76.15 506.10 76.39 506.03 76.59 505.91   L 76.97 505.68   L 77.16 505.49   C 77.28 505.38 77.35 505.23 77.36 505.07   L 78.17 497.46   L 78.06 506.87   C 78.05 507.16 77.81 507.40 77.52 507.40   L 12.42 507.40   C 12.09 507.40 11.82 507.13 11.82 506.80   L 11.86 399.54   C 11.88 422.19 11.89 445.58 11.90 469.70   C 11.90 471.16 13.07 471.52 13.00 473.22   Z"
       id="path15"
       style="fill:url(#linearGradient17);fill-opacity:1" /></g></svg>
