<svg xmlns="http://www.w3.org/2000/svg" version="1.1" xmlns:xlink="http://www.w3.org/1999/xlink" xmlns:svgjs="http://svgjs.com/svgjs" width="512" height="512" x="0" y="0" viewBox="0 0 512 512" style="enable-background:new 0 0 512 512" xml:space="preserve" class=""><g><linearGradient id="a" x1="426.957" x2="85.043" y1="449.993" y2="108.079" gradientUnits="userSpaceOnUse"><stop offset="0" stop-color="#fbae17"></stop><stop offset="1" stop-color="#f16322"></stop></linearGradient><path fill="url(#a)" d="M398.01 82.071h-70.186V71.493a7.098 7.098 0 0 0-7.098-7.097h-21.982C291.597 47.438 274.727 35.999 256 35.999c-18.726 0-35.596 11.439-42.744 28.397h-21.982a7.098 7.098 0 0 0-7.097 7.097v10.578h-70.188a7.098 7.098 0 0 0-7.097 7.097v379.736a7.098 7.098 0 0 0 7.097 7.097H398.01a7.098 7.098 0 0 0 7.098-7.097V89.168a7.099 7.099 0 0 0-7.098-7.097zM198.37 78.59h19.894a7.097 7.097 0 0 0 6.82-5.136c3.937-13.696 16.649-23.262 30.916-23.262 14.268 0 26.98 9.565 30.916 23.261a7.096 7.096 0 0 0 6.82 5.137h19.894v29.485H198.37zm-14.193 17.675v18.907a7.098 7.098 0 0 0 7.097 7.097h129.453a7.098 7.098 0 0 0 7.098-7.097V96.265h63.09V423.3H121.086V96.265zm-63.091 365.543v-24.314h269.828v24.314zm39.869-221.529c0-25.284 20.57-45.854 45.854-45.854h67.174l-3.943-3.357a7.097 7.097 0 0 1 9.2-10.809l17.132 14.584a7.095 7.095 0 0 1 .805 10.004l-14.584 17.132a7.082 7.082 0 0 1-5.407 2.496 7.097 7.097 0 0 1-5.401-11.696l3.541-4.16h-68.517c-17.457 0-31.66 14.202-31.66 31.66s14.203 31.66 31.66 31.66h98.383c25.284 0 45.854 20.569 45.854 45.854s-20.569 45.854-45.854 45.854H220.19a7.098 7.098 0 0 1 0-14.194h85.001c17.458 0 31.66-14.202 31.66-31.66s-14.202-31.66-31.66-31.66h-98.383c-25.283 0-45.853-20.57-45.853-45.854zm45.778 107.004-9.268 9.267 9.268 9.267a7.098 7.098 0 0 1-10.037 10.037l-9.268-9.268-9.267 9.268a7.098 7.098 0 0 1-10.037-10.037l9.268-9.267-9.268-9.267a7.098 7.098 0 0 1 10.037-10.037l9.267 9.268 9.268-9.268a7.097 7.097 0 0 1 10.037 10.037zm122.589-124.379c11.79 0 21.382-9.592 21.382-21.382 0-11.791-9.592-21.383-21.382-21.383-11.791 0-21.383 9.592-21.383 21.383s9.592 21.382 21.383 21.382zm0-28.57c3.964 0 7.188 3.224 7.188 7.188s-3.224 7.188-7.188 7.188c-3.965 0-7.189-3.225-7.189-7.188 0-3.964 3.224-7.188 7.189-7.188z" data-original="url(#a)" class=""></path></g></svg>