<svg xmlns="http://www.w3.org/2000/svg" version="1.1" xmlns:xlink="http://www.w3.org/1999/xlink" xmlns:svgjs="http://svgjs.com/svgjs" width="512" height="512" x="0" y="0" viewBox="0 0 24 24" style="enable-background:new 0 0 512 512" xml:space="preserve" class=""><g><linearGradient id="a" x1="1" x2="23" y1="12" y2="12" gradientUnits="userSpaceOnUse"><stop offset="0" stop-color="#ee0979"></stop><stop offset="1" stop-color="#ff6a00"></stop></linearGradient><path fill="url(#a)" d="M12 1C5.9 1 1 5.9 1 12c0 1.5.3 2.9.7 4.1.3.6.6 1.2.9 1.7-.1.3-.2 1.1-.7 2.9-.1.4 0 .7.3 1s.7.4 1 .3c1.9-.5 2.6-.7 2.9-.7.6.4 1.1.7 1.7.9 1.3.5 2.7.8 4.2.8 6.1 0 11-4.9 11-11S18.1 1 12 1zm0 20c-1.2 0-2.4-.2-3.4-.7-.6-.2-1.1-.5-1.6-.8-.2-.1-.3-.2-.7-.2s-.9.1-1.9.3c.4-1.9.3-2.3.1-2.6-.3-.5-.6-1-.8-1.6-.5-1-.7-2.2-.7-3.4 0-5 4-9 9-9s9 4 9 9-4 9-9 9zm4.7-12.1h-1.5l.2-.9c.1-.5-.3-1-.7-1.1-.6-.1-1.1.3-1.2.8l-.2 1.2h-1.5l.1-.9c.1-.5-.3-1-.7-1.1-.6-.1-1.1.3-1.2.8l-.2 1.2H8.3c-.6 0-1 .4-1 1s.4 1 1 1h1.1L9 13H7.3c-.6 0-1 .4-1 1s.4 1 1 1h1.4l-.2 1c-.1.5.2 1 .8 1.1h.2c.4 0 .9-.3.9-.8l.2-1.3h1.5l-.1 1c-.1.5.2 1 .8 1.1h.2c.4 0 .9-.3 1-.8l.2-1.3h1.5c.5 0 1-.4 1-1s-.4-1-1-1h-1.1l.4-2.1h1.8c.5 0 1-.4 1-1-.1-.6-.5-1-1.1-1zM12.5 13H11l.4-2.1h1.5z" data-original="url(#a)" class=""></path></g></svg>